<svg xmlns="http://www.w3.org/2000/svg" version="1.1" xmlns:xlink="http://www.w3.org/1999/xlink" xmlns:svgjs="http://svgjs.dev/svgjs" width="1000" height="573" viewBox="0 0 1000 573"><g transform="matrix(1,0,0,1,-0.6060255448040266,-0.2878955926901199)"><svg viewBox="0 0 396 227" data-background-color="#ffffff" preserveAspectRatio="xMidYMid meet" height="573" width="1000" xmlns="http://www.w3.org/2000/svg" xmlns:xlink="http://www.w3.org/1999/xlink"><g id="tight-bounds" transform="matrix(1,0,0,1,0.23998611574239703,0.11405287877950343)"><svg viewBox="0 0 395.52 226.77189157908865" height="226.77189157908865" width="395.52"><g><svg viewBox="0 0 395.52 226.77189157908865" height="226.77189157908865" width="395.52"><g transform="matrix(1,0,0,1,0,167.775527942725)"><svg viewBox="0 0 395.52 58.99636363636363" height="58.99636363636363" width="395.52"><g><svg viewBox="0 0 395.52 58.99636363636363" height="58.99636363636363" width="395.52"><g><svg viewBox="0 0 395.52 58.99636363636363" height="58.99636363636363" width="395.52"><g transform="matrix(1,0,0,1,0,0)"><svg width="395.52" viewBox="3.8499999046325684 -33.20000076293945 227.38998413085938 33.79999923706055" height="58.99636363636363" data-palette-color="#ba3b0a"><g class="undefined-text-0" data-fill-palette-color="primary" id="text-0"><path d="M10.85 0L3.85 0 3.85-32.6 11.4-32.6 19.9-16.4 23.1-9.2 23.3-9.2Q23.05-11.8 22.73-15 22.4-18.2 22.4-21.1L22.4-21.1 22.4-32.6 29.4-32.6 29.4 0 21.85 0 13.35-16.25 10.15-23.35 9.95-23.35Q10.2-20.65 10.53-17.55 10.85-14.45 10.85-11.55L10.85-11.55 10.85 0ZM50.85 0L43.45 0 43.45-26.4 34.5-26.4 34.5-32.6 59.8-32.6 59.8-26.4 50.85-26.4 50.85 0ZM78.5 0.6L78.5 0.6Q75.4 0.6 72.65-0.48 69.89-1.55 67.82-3.65 65.75-5.75 64.55-8.88 63.34-12 63.34-16.1L63.34-16.1Q63.34-20.15 64.59-23.33 65.84-26.5 67.95-28.7 70.05-30.9 72.84-32.05 75.65-33.2 78.75-33.2L78.75-33.2Q81.9-33.2 84.4-31.93 86.9-30.65 88.55-28.95L88.55-28.95 84.65-24.25Q83.4-25.4 82.02-26.13 80.65-26.85 78.9-26.85L78.9-26.85Q77.25-26.85 75.77-26.13 74.3-25.4 73.22-24.05 72.15-22.7 71.52-20.75 70.9-18.8 70.9-16.35L70.9-16.35Q70.9-11.3 73.05-8.53 75.2-5.75 78.8-5.75L78.8-5.75Q80.8-5.75 82.37-6.63 83.95-7.5 85.15-8.8L85.15-8.8 89.05-4.2Q84.95 0.6 78.5 0.6Z" fill="#ba3b0a" data-fill-palette-color="primary"></path><path d="M99.5 0L92.9 0 92.9-32.6 100.95-32.6 106.2-18.1Q106.7-16.65 107.15-15.13 107.6-13.6 108.1-12.1L108.1-12.1 108.3-12.1Q108.8-13.6 109.23-15.13 109.65-16.65 110.15-18.1L110.15-18.1 115.3-32.6 123.3-32.6 123.3 0 116.6 0 116.6-11.95Q116.6-13.15 116.7-14.6 116.8-16.05 116.95-17.53 117.1-19 117.25-20.43 117.4-21.85 117.55-23.05L117.55-23.05 117.35-23.05 114.7-15.3 110.05-2.85 106-2.85 101.35-15.3 98.75-23.05 98.55-23.05Q98.7-21.85 98.85-20.43 99-19 99.15-17.53 99.3-16.05 99.4-14.6 99.5-13.15 99.5-11.95L99.5-11.95 99.5 0ZM143.85 0.6L143.85 0.6Q137.5 0.6 134.15-3.15 130.8-6.9 130.8-15.1L130.8-15.1 130.8-32.6 138.2-32.6 138.2-14.35Q138.2-9.55 139.65-7.65 141.1-5.75 143.85-5.75L143.85-5.75Q146.6-5.75 148.1-7.65 149.6-9.55 149.6-14.35L149.6-14.35 149.6-32.6 156.7-32.6 156.7-15.1Q156.7-6.9 153.42-3.15 150.15 0.6 143.85 0.6ZM174.19 0.6L174.19 0.6Q170.99 0.6 167.82-0.58 164.64-1.75 162.14-4.1L162.14-4.1 166.35-9.15Q168.1-7.65 170.22-6.7 172.35-5.75 174.39-5.75L174.39-5.75Q176.69-5.75 177.82-6.6 178.94-7.45 178.94-8.9L178.94-8.9Q178.94-9.65 178.62-10.2 178.3-10.75 177.67-11.18 177.05-11.6 176.17-11.98 175.3-12.35 174.24-12.8L174.24-12.8 169.99-14.6Q168.74-15.1 167.57-15.9 166.39-16.7 165.47-17.78 164.55-18.85 163.99-20.28 163.44-21.7 163.44-23.5L163.44-23.5Q163.44-25.5 164.3-27.28 165.14-29.05 166.69-30.38 168.24-31.7 170.37-32.45 172.49-33.2 175.05-33.2L175.05-33.2Q177.89-33.2 180.67-32.1 183.44-31 185.55-28.9L185.55-28.9 181.8-24.25Q180.19-25.5 178.6-26.18 176.99-26.85 175.05-26.85L175.05-26.85Q173.14-26.85 172.02-26.08 170.89-25.3 170.89-23.9L170.89-23.9Q170.89-23.15 171.27-22.63 171.64-22.1 172.32-21.68 172.99-21.25 173.89-20.88 174.8-20.5 175.85-20.05L175.85-20.05 180.05-18.35Q183.05-17.15 184.77-15.05 186.49-12.95 186.49-9.5L186.49-9.5Q186.49-7.45 185.67-5.63 184.85-3.8 183.27-2.43 181.69-1.05 179.39-0.23 177.1 0.6 174.19 0.6ZM199.39 0L192.04 0 192.04-32.6 199.39-32.6 199.39 0ZM220.69 0.6L220.69 0.6Q217.59 0.6 214.84-0.48 212.09-1.55 210.02-3.65 207.94-5.75 206.74-8.88 205.54-12 205.54-16.1L205.54-16.1Q205.54-20.15 206.79-23.33 208.04-26.5 210.14-28.7 212.24-30.9 215.04-32.05 217.84-33.2 220.94-33.2L220.94-33.2Q224.09-33.2 226.59-31.93 229.09-30.65 230.74-28.95L230.74-28.95 226.84-24.25Q225.59-25.4 224.21-26.13 222.84-26.85 221.09-26.85L221.09-26.85Q219.44-26.85 217.96-26.13 216.49-25.4 215.41-24.05 214.34-22.7 213.71-20.75 213.09-18.8 213.09-16.35L213.09-16.35Q213.09-11.3 215.24-8.53 217.39-5.75 220.99-5.75L220.99-5.75Q222.99-5.75 224.56-6.63 226.14-7.5 227.34-8.8L227.34-8.8 231.24-4.2Q227.14 0.6 220.69 0.6Z" fill="#e8772e" data-fill-palette-color="secondary"></path></g></svg></g></svg></g></svg></g></svg></g><g transform="matrix(1,0,0,1,127.79986157045568,0)"><svg viewBox="0 0 139.92027685908863 139.92027685908863" height="139.92027685908863" width="139.92027685908863"><g><svg></svg></g><g id="icon-0"><svg viewBox="0 0 139.92027685908863 139.92027685908863" height="139.92027685908863" width="139.92027685908863"><g><path d="M0 69.96c0-38.638 31.322-69.96 69.96-69.96 38.638 0 69.96 31.322 69.96 69.96 0 38.638-31.322 69.96-69.96 69.96-38.638 0-69.96-31.322-69.96-69.96zM69.96 134.6c35.7 0 64.64-28.94 64.64-64.64 0-35.7-28.94-64.64-64.64-64.64-35.7 0-64.64 28.94-64.64 64.64 0 35.7 28.94 64.64 64.64 64.64z" data-fill-palette-color="accent" fill="#e8772e" stroke="transparent"></path></g><g transform="matrix(1,0,0,1,32.872547560266575,32.89486139697906)"><svg viewBox="0 0 74.17518173855548 74.13055406513051" height="74.13055406513051" width="74.17518173855548"><g><svg xmlns="http://www.w3.org/2000/svg" xmlns:xlink="http://www.w3.org/1999/xlink" version="1.1" x="0" y="0" viewBox="0.9461698532104492 2 96.05657196044922 95.998779296875" enable-background="new 0 0 100 100" xml:space="preserve" height="74.13055406513051" width="74.17518173855548" class="icon-a-0" data-fill-palette-color="accent" id="a-0"><g fill="#e8772e" data-fill-palette-color="accent"><path fill="#e8772e" d="M93.732 14.804L28.318 2c-0.006 0-0.013 0-0.019 0h-1.634C24.862 2 23 3.445 23 5.224V6.86c0 0 0 0.004 0 0.007l0.203 46.41c-2.894 0.085-5.822 0.663-8.815 1.929C4.269 59.487-1.33 69.224 1.826 76.952c3.153 7.728 13.94 10.521 24.062 6.24 8.887-3.76 13.953-11.728 13.009-18.847C39.168 63.874 39 63.355 39 62.769V21.345l42 9.6V66.08c-3 0.125-5.866 0.713-8.732 1.926-10.118 4.28-15.859 14.018-12.703 21.745 3.152 7.729 13.871 10.522 23.989 6.241 9.112-3.856 14.558-12.131 13.258-19.384C96.924 76.28 97 75.937 97 75.567v-55.9c0-0.004 0-0.004 0-0.004v-1.641C97 16.245 95.537 14.804 93.732 14.804z" data-fill-palette-color="accent"></path></g></svg></g></svg></g></svg></g></svg></g><g></g></svg></g><defs></defs></svg><rect width="395.52" height="226.77189157908865" fill="none" stroke="none" visibility="hidden"></rect></g></svg></g></svg>